# xmcd CD database file
#
# Track frame offsets:
#	187
#	18750
#	44687
#	64552
#	101517
#	126070
#	153515
#	175622
#	205990
#	233755
#	256445
#	267852
#
# Disc length: 3937 seconds
#
# Revision: 0
# Processed by: cddbd v1.5.2PL0 Copyright (c) Steve Scherf et al.
# Submitted via: CDex 1.51
#
DISCID=9a0f5f0c
DTITLE=Captain John Handy - Very Handy!
DYEAR=1900
DGENRE=Jazz
TTITLE0=Give Me Your Telephone Number
TTITLE1=Easy Riding
TTITLE2=I'll Always Be In Love With You
TTITLE3=Golden Leaf Strut
TTITLE4=Running Wild
TTITLE5=Rose Room
TTITLE6=Get Out Of Here
TTITLE7=When I Grow Too Old To Dream
TTITLE8=On Moonlight Bay
TTITLE9=Chicken (Ain't Nothin' But A Bird)
TTITLE10=Walking By The River
TTITLE11=Mahogany Hall Stomp
EXTD=
EXTT0=
EXTT1=
EXTT2=
EXTT3=
EXTT4=
EXTT5=
EXTT6=
EXTT7=
EXTT8=
EXTT9=
EXTT10=
EXTT11=
PLAYORDER=
